<?xml version="1.0" encoding="utf-8"?>
<svg id="master-artboard" viewBox="0 0 1400 980" version="1.1" xmlns="http://www.w3.org/2000/svg" x="0px" y="0px" style="enable-background:new 0 0 1400 980;" width="1400px" height="980px"><defs><linearGradient id="gradient-0" gradientUnits="userSpaceOnUse" x1="700" y1="0" x2="700" y2="980">
                <stop offset="0" style="stop-color: #ffffff"/>
                <stop offset="1" style="stop-color: #cccccc"/>
              </linearGradient><radialGradient id="gradient-1" gradientUnits="objectBoundingBox" cx="0.5" cy="0.5" r="0.5">
                <stop offset="0" style="stop-color: #ffffff"/>
                <stop offset="1" style="stop-color: #cccccc"/>
              </radialGradient></defs><g transform="matrix(1.8383293884917333, 0, 0, 1.8383293884917333, 205.73590546733772, -0.0000033412416087230667)"><rect id="ee-background" x="0" y="0" width="537.7318725585938" height="533.0927124023438" style="fill: white; fill-opacity: 0; pointer-events: none;"/><g transform="matrix(5.46848726272583, 0, 0, 5.46848726272583, -3351.2679617053386, -187.18982136911615)"><g id="g-1" transform="matrix(1.143767361980972, 0, 0, 1.143767361980972, -81.1513732032947, -31.397407758072184)">
	<g id="g-2" transform="matrix(0.9567852020263672, 0, 0, 0.9567852020263672, 26.217513228318012, 4.544457912445072)">
		<g><path class="st0" d="M652,46c27.6,0,50,22.4,50,50s-22.4,50-50,50s-50-22.4-50-50S624.4,46,652,46z" style="fill: rgb(201, 214, 223); stroke: rgb(237, 237, 237); stroke-width: 0; fill-opacity: 1;" transform="matrix(1, 0, 0, 1, -0.14755061841162842, -0.14755061841159645)"/></g>
	</g>
</g></g><path d="M 0 0 H 1400 V 980 H 0 V 0 Z" id="rect-1" style="fill: rgb(255, 255, 255); fill-opacity: 0; pointer-events: none;" transform="matrix(0.42956268787384033, 0, 0, 0.42956268787384033, -27.79070472717285, 130.32602262496948)"/><g transform="matrix(0.7706428170204163, 0, 0, 0.7706428170204163, -216.5745200917255, -105.41975308916484)"><path d="M 1173.809998 775.190002 A 155.630005 144 0 0 1 1018.179993 919.190002 A 155.630005 144 0 0 1 862.549988 775.190002 A 155.630005 144 0 0 1 1018.179993 631.190002 A 155.630005 144 0 0 1 1173.809998 775.190002 Z" class="st0" style="fill: rgb(255, 255, 255); stroke: rgb(0, 0, 0); stroke-width: 0; stroke-opacity: 1;" transform="matrix(0.5106973648071289, 0, 0, 0.5106973648071289, 104.97063602463356, 25.89664497817523)"/><path class="st1" d="M1017.18,921.19c-89.12,0-161.63-67.29-161.63-150c0-82.71,72.51-150,161.63-150&#10;&#9;&#9;c89.12,0,161.63,67.29,161.63,150C1178.81,853.9,1106.3,921.19,1017.18,921.19z M1017.18,633.19c-82.5,0-149.63,61.91-149.63,138&#10;&#9;&#9;c0,76.09,67.12,138,149.63,138c82.5,0,149.63-61.91,149.63-138C1166.81,695.1,1099.69,633.19,1017.18,633.19z" style="fill: rgb(170, 170, 170); stroke: rgb(61, 61, 61); stroke-width: 0; stroke-opacity: 1;" transform="matrix(0.5106973648071289, 0, 0, 0.5106973648071289, 104.97063602463356, 25.89664497817523)"/><path class="st1" d="M1023.71,802.52l-11.05-4.67c32.57-77.13,116.4-94.37,177.61-106.96c39.62-8.15,70.92-14.59,70.92-32.71h12&#10;&#9;c0,19.51-19.23,27.53-25.55,30.17c-14.13,5.9-33.05,9.79-54.95,14.29C1130.82,715.37,1053.83,731.21,1023.71,802.52z" style="fill: rgb(154, 154, 154); stroke: rgb(0, 0, 0); stroke-width: 0; stroke-opacity: 1;" transform="matrix(0.5106974244117737, 0, 0, 0.5106974244117737, 104.97063602463356, 25.89664497817523)"/><path class="st1" d="M1014.15,802.43c-30.12-71.31-107.11-87.15-168.97-99.87c-21.9-4.5-40.82-8.4-54.95-14.29&#10;&#9;c-6.32-2.64-25.55-10.66-25.55-30.17h12c0,18.12,31.3,24.56,70.92,32.71c61.21,12.59,145.04,29.83,177.61,106.96L1014.15,802.43z" style="fill: rgb(154, 154, 154); stroke: rgb(0, 0, 0); stroke-width: 0; stroke-opacity: 1;" transform="matrix(0.5106974244117737, 0, 0, 0.5106974244117737, 104.97063602463356, 25.89664497817523)"/><path d="M 1149.720054 762.690002 A 10.04 14.5 0 0 1 1139.680054 777.190002 A 10.04 14.5 0 0 1 1129.640054 762.690002 A 10.04 14.5 0 0 1 1139.680054 748.190002 A 10.04 14.5 0 0 1 1149.720054 762.690002 Z" transform="matrix(0.5106973648071289, 0, 0, 0.5106973648071289, 104.97063602463356, 25.89664497817523)" style="stroke: rgb(0, 0, 0); stroke-width: 0; stroke-opacity: 1;"/><path d="M1139.68,777.69c-5.81,0-10.54-6.73-10.54-15s4.73-15,10.54-15s10.54,6.73,10.54,15S1145.49,777.69,1139.68,777.69z&#10;&#9;&#9; M1139.68,748.69c-5.26,0-9.54,6.28-9.54,14s4.28,14,9.54,14s9.54-6.28,9.54-14S1144.94,748.69,1139.68,748.69z" transform="matrix(0.5106973648071289, 0, 0, 0.5106973648071289, 104.97063602463356, 25.89664497817523)" style="stroke: rgb(0, 0, 0); stroke-width: 0; stroke-opacity: 1;"/><path d="M 1139.680008 767.190002 A 41.169998 40 0 0 1 1098.51001 807.190002 A 41.169998 40 0 0 1 1057.340012 767.190002 A 41.169998 40 0 0 1 1098.51001 727.190002 A 41.169998 40 0 0 1 1139.680008 767.190002 Z" class="st0" style="fill: rgb(255, 252, 252); stroke: rgb(0, 0, 0); stroke-width: 0; stroke-opacity: 1;" transform="matrix(0.5106973648071289, 0, 0, 0.5106973648071289, 104.97063602463356, 25.89664497817523)"/><path class="st1" d="M1098.51,807.69c-22.97,0-41.67-18.17-41.67-40.5s18.69-40.5,41.67-40.5s41.67,18.17,41.67,40.5&#10;&#9;&#9;S1121.48,807.69,1098.51,807.69z M1098.51,727.69c-22.42,0-40.67,17.72-40.67,39.5s18.24,39.5,40.67,39.5s40.67-17.72,40.67-39.5&#10;&#9;&#9;S1120.93,727.69,1098.51,727.69z" style="fill: rgb(16, 34, 65); stroke: rgb(171, 171, 171); stroke-width: 6; stroke-opacity: 1;" transform="matrix(0.5106973648071289, 0, 0, 0.5106973648071289, 104.97063602463356, 25.89664497817523)"/><path d="M 1150.719971 761.190002 L 1150.719971 799.440002 L 1150.719971 850.190002" transform="matrix(0.5106973648071289, 0, 0, 0.5106973648071289, 104.97063602463356, 25.89664497817523)" style="stroke: rgb(0, 0, 0); stroke-width: 0; stroke-opacity: 1;"/><path d="M 1150.219971 761.190002 H 1151.219971 V 850.190002 H 1150.219971 V 761.190002 Z" transform="matrix(0.5106973648071289, 0, 0, 0.5106973648071289, 104.97063602463356, 25.89664497817523)" style="stroke: rgb(0, 0, 0); stroke-width: 0; stroke-opacity: 1; fill: rgb(0, 0, 0);"/><path class="st4" d="M1150.19,905.19h0.05c3.57,0,6.5-2.92,6.5-6.5v-46c0-3.58-2.93-6.5-6.5-6.5h-0.05c-3.58,0-6.5,2.92-6.5,6.5v46&#10;&#9;&#9;C1143.69,902.26,1146.62,905.19,1150.19,905.19z" style="stroke: rgb(255, 255, 255); stroke-width: 0; stroke-miterlimit: 10; stroke-opacity: 1;" transform="matrix(0.5106973648071289, 0, 0, 0.5106973648071289, 104.97063602463356, 25.89664497817523)"/><path class="st4" d="M1150.24,905.69h-0.05c-3.86,0-7-3.14-7-7v-46c0-3.86,3.14-7,7-7c3.91,0,7.05,3.14,7.05,7v46&#10;&#9;&#9;C1157.24,902.55,1154.1,905.69,1150.24,905.69z M1150.24,846.69c-3.36,0-6.05,2.69-6.05,6v46c0,3.31,2.69,6,6,6h0.05&#10;&#9;&#9;c3.31,0,6-2.69,6-6v-46C1156.24,849.38,1153.55,846.69,1150.24,846.69z" style="stroke: rgb(255, 255, 255); stroke-width: 0; stroke-miterlimit: 10; stroke-opacity: 1;" transform="matrix(0.5106973648071289, 0, 0, 0.5106973648071289, 104.97063602463356, 25.89664497817523)"/><path d="M 1105.54001 760.690002 A 6.78 6.5 0 0 1 1098.76001 767.190002 A 6.78 6.5 0 0 1 1091.98001 760.690002 A 6.78 6.5 0 0 1 1098.76001 754.190002 A 6.78 6.5 0 0 1 1105.54001 760.690002 Z" class="st0" style="fill: rgb(255, 255, 255); stroke: rgb(0, 0, 0); stroke-width: 0; stroke-opacity: 1;" transform="matrix(0.5106973648071289, 0, 0, 0.5106973648071289, 104.97063602463356, 25.89664497817523)"/><path class="st1" d="M1098.76,773.19c-7.05,0-12.78-5.61-12.78-12.5s5.73-12.5,12.78-12.5s12.78,5.61,12.78,12.5&#10;&#9;&#9;S1105.81,773.19,1098.76,773.19z M1098.76,760.19c-0.47,0-0.78,0.3-0.78,0.5s0.3,0.5,0.78,0.5s0.78-0.3,0.78-0.5&#10;&#9;&#9;S1099.24,760.19,1098.76,760.19z" style="fill: rgb(169, 169, 169); stroke: rgb(0, 0, 0); stroke-width: 0; stroke-opacity: 1;" transform="matrix(0.5106973648071289, 0, 0, 0.5106973648071289, 104.97063602463356, 25.89664497817523)"/><path d="M 956.689973 761.190002 A 6.78 6.5 0 0 1 949.909973 767.690002 A 6.78 6.5 0 0 1 943.129973 761.190002 A 6.78 6.5 0 0 1 949.909973 754.690002 A 6.78 6.5 0 0 1 956.689973 761.190002 Z" class="st0" style="fill: rgb(255, 255, 255); stroke: rgb(0, 0, 0); stroke-width: 0; stroke-opacity: 1;" transform="matrix(0.5106973648071289, 0, 0, 0.5106973648071289, 104.97063602463356, 25.89664497817523)"/><path class="st1" d="M949.91,773.69c-7.05,0-12.78-5.61-12.78-12.5s5.73-12.5,12.78-12.5s12.78,5.61,12.78,12.5&#10;&#9;&#9;S956.96,773.69,949.91,773.69z M949.91,760.69c-0.47,0-0.78,0.3-0.78,0.5s0.3,0.5,0.78,0.5s0.78-0.3,0.78-0.5&#10;&#9;&#9;S950.39,760.69,949.91,760.69z" style="fill: rgb(152, 152, 152); stroke: rgb(0, 0, 0); stroke-width: 0; stroke-opacity: 1;" transform="matrix(0.5106973648071289, 0, 0, 0.5106973648071289, 104.97063602463356, 25.89664497817523)"/><path d="M 344.190002 746.179993 H 817.040009 V 981.069992 H 344.190002 V 746.179993 Z" class="st5" style="fill: none; stroke: rgb(0, 0, 0); stroke-width: 0; stroke-opacity: 1;" transform="matrix(0.5106974244117737, 0, 0, 0.5106974244117737, 104.97063602463356, 25.89664497817523)"/><text transform="matrix(0.5106974244117737, 0, 0, 0.5106974244117737, 280.74780691784326, 451.91022401914313)" class="st6 st7 st8 st9" style="white-space: pre; fill: rgb(0, 0, 0); font-family: Acre-Medium; font-size: 110px; letter-spacing: 40px; stroke: rgb(0, 0, 0); stroke-width: 0; stroke-opacity: 1;">Archi</text><path d="M 1271.130005 746.450012 H 1801.169983 V 835.300011 H 1271.130005 V 746.450012 Z" class="st5" style="fill: none; stroke: rgb(0, 0, 0); stroke-width: 0; stroke-opacity: 1;" transform="matrix(0.5106974244117737, 0, 0, 0.5106974244117737, 104.97063602463356, 25.89664497817523)"/><text transform="matrix(0.5106974244117737, 0, 0, 0.5106974244117737, 754.1317251046258, 452.0457220680372)" class="st6 st7 st8 st9" style="white-space: pre; fill: rgb(0, 0, 0); font-family: Acre-Medium; font-size: 110px; letter-spacing: 40px; stroke: rgb(0, 0, 0); stroke-width: 0; stroke-opacity: 1;">Check</text><path d="M 337.3283996582031 630.8475952148438" style="fill: rgb(16, 34, 65); fill-opacity: 1; stroke: rgb(85, 85, 85); stroke-opacity: 1; stroke-width: 6; paint-order: stroke;"/><path d="M 512.9520874023438 635.5309448242188" style="fill: rgb(16, 34, 65); fill-opacity: 1; stroke: rgb(171, 171, 171); stroke-opacity: 1; stroke-width: 6; paint-order: stroke;"/><path d="M 1091.3394775390625 678.8514404296875" style="fill: rgb(16, 34, 65); fill-opacity: 1; stroke: rgb(171, 171, 171); stroke-opacity: 1; stroke-width: 6; paint-order: stroke;"/><path d="M 1168.6138916015625 407.2201232910156" style="fill: rgb(16, 34, 65); fill-opacity: 1; stroke: rgb(171, 171, 171); stroke-opacity: 1; stroke-width: 6; paint-order: stroke;"/><path d="M 1120.6099853515625 176.56768798828125" style="fill: rgb(16, 34, 65); fill-opacity: 1; stroke: rgb(171, 171, 171); stroke-opacity: 1; stroke-width: 6; paint-order: stroke;"/></g></g></svg>